<svg version="1.1" xmlns="http://www.w3.org/2000/svg" viewBox="0 0 579.4413437921721 635.5053823759517" width="1158.8826875843442" height="1271.0107647519035">
  <!-- svg-source:excalidraw -->
  
  <defs>
    <style>
      @font-face {
        font-family: "Virgil";
        src: url("https://excalidraw.com/Virgil.woff2");
      }
      @font-face {
        font-family: "Cascadia";
        src: url("https://excalidraw.com/Cascadia.woff2");
      }
    </style>
  </defs>
  <rect x="0" y="0" width="579.4413437921721" height="635.5053823759517" fill="#ffffff"></rect><g stroke-linecap="round"><g transform="translate(11.349076810951374 356.7646858787484) rotate(0 37.70465071053695 40.586152347910684)" fill-rule="evenodd"><path d="M-1.08 -1.04 L1.69 82.93 L1.71 83.2 L16.06 89.66 L41.47 89.19 L62.13 87.17 L75.69 84.53 L73.93 -2.59 L65.8 -4.65 L37.1 -5.76 L8.74 -6.03 L3.79 -2.52 L0.06 -0.83" stroke="none" stroke-width="0" fill="#ced4da" fill-rule="evenodd"></path><path d="M-0.41 0.01 C-0.43 12.23, -0.37 59.38, -0.5 72.93 C-0.63 86.49, -1.77 79.21, -1.18 81.35 C-0.6 83.49, 0.12 84.5, 3.01 85.78 C5.9 87.06, 10.03 88.53, 16.15 89.01 C22.27 89.49, 32.32 88.89, 39.74 88.67 C47.16 88.44, 55.19 88.42, 60.68 87.68 C66.16 86.93, 70.39 85.21, 72.66 84.18 C74.92 83.15, 73.77 83.19, 74.25 81.5 C74.74 79.81, 75.49 86.5, 75.59 74.05 C75.69 61.59, 74.91 19.17, 74.83 6.76 C74.76 -5.65, 76.19 1.41, 75.14 -0.42 C74.09 -2.24, 71.29 -3.28, 68.52 -4.21 C65.76 -5.14, 64.08 -5.37, 58.55 -6.01 C53.02 -6.65, 42.14 -7.8, 35.35 -8.05 C28.55 -8.3, 23.29 -8.16, 17.79 -7.52 C12.29 -6.88, 5.4 -5.39, 2.36 -4.22 C-0.69 -3.05, -0.12 -1.29, -0.47 -0.49 C-0.83 0.3, 0.32 0.43, 0.24 0.56 M1.58 -1.02 C1.97 11.41, 1.9 60.41, 1.82 74.35 C1.73 88.28, 0.92 81.05, 1.08 82.59 C1.25 84.13, 0.03 82.37, 2.8 83.58 C5.58 84.79, 11.38 89.22, 17.75 89.86 C24.12 90.49, 33.86 87.98, 41.04 87.4 C48.22 86.82, 55.77 86.95, 60.83 86.38 C65.89 85.81, 68.86 84.95, 71.39 83.96 C73.91 82.97, 75.1 82.16, 75.99 80.42 C76.87 78.68, 76.82 86.18, 76.68 73.52 C76.55 60.85, 75.6 16.82, 75.17 4.41 C74.74 -7.99, 75.28 0.7, 74.12 -0.9 C72.96 -2.51, 70.38 -4.31, 68.2 -5.2 C66.02 -6.09, 66.55 -5.63, 61.04 -6.23 C55.54 -6.82, 42.2 -8.7, 35.17 -8.79 C28.13 -8.87, 23.97 -7.51, 18.83 -6.72 C13.69 -5.93, 7.17 -5.1, 4.31 -4.05 C1.46 -2.99, 2.56 -1.22, 1.67 -0.36 C0.79 0.5, -0.57 1.28, -1.02 1.11" stroke="#000000" stroke-width="1" fill="none"></path></g></g><g stroke-linecap="round" transform="translate(11.615009401637508 348.0117177227221) rotate(0 37.265041038570416 7.536574193636625)"><path d="M30.17 0.18 C37.53 -0.28, 47.84 0.04, 54.66 0.82 C61.47 1.59, 68.2 3.27, 71.05 4.81 C73.91 6.35, 74.07 8.36, 71.8 10.06 C69.54 11.75, 64.13 14.29, 57.47 14.96 C50.81 15.64, 40.01 14.49, 31.85 14.09 C23.68 13.7, 13.77 13.78, 8.48 12.59 C3.19 11.4, 0.23 8.72, 0.12 6.94 C0 5.17, 1.11 3.09, 7.8 1.95 C14.5 0.81, 33.16 0.36, 40.29 0.09 C47.43 -0.17, 50.58 0.32, 50.62 0.35 M46.37 0.27 C54 0.85, 63.15 2.79, 68.01 4.22 C72.87 5.64, 76.07 7.58, 75.51 8.83 C74.95 10.07, 70.17 10.64, 64.66 11.71 C59.14 12.77, 50.18 14.84, 42.41 15.19 C34.64 15.55, 24.78 14.72, 18.04 13.83 C11.29 12.95, 4.53 11.27, 1.96 9.86 C-0.61 8.46, -0.54 6.8, 2.6 5.41 C5.74 4.02, 13.5 2.17, 20.8 1.52 C28.09 0.88, 42.49 1.55, 46.38 1.56 C50.26 1.57, 44.21 1.69, 44.11 1.61" stroke="none" stroke-width="0" fill="#fff"></path><path d="M20.04 -0.02 C26.62 -0.75, 37.73 -0.37, 45.41 -0.03 C53.08 0.32, 61.2 0.84, 66.06 2.06 C70.93 3.29, 74.71 5.67, 74.6 7.35 C74.48 9.02, 70.59 10.76, 65.37 12.12 C60.15 13.48, 51.22 15.19, 43.28 15.51 C35.33 15.82, 24.48 14.82, 17.68 14 C10.87 13.17, 4.98 12.24, 2.45 10.55 C-0.08 8.87, -0.82 5.68, 2.49 3.9 C5.8 2.12, 18.39 0.58, 22.31 -0.12 C26.23 -0.82, 25.76 -0.54, 26 -0.3 M23.83 -0.09 C31.01 -0.37, 42.76 0.45, 50.16 1.14 C57.57 1.84, 64.42 2.92, 68.25 4.06 C72.09 5.21, 74.09 6.29, 73.18 8.03 C72.26 9.78, 68.65 13.42, 62.77 14.53 C56.89 15.65, 46.27 14.76, 37.9 14.75 C29.52 14.74, 18.55 15.43, 12.52 14.46 C6.5 13.5, 2.94 10.78, 1.74 8.95 C0.53 7.12, 1.4 4.66, 5.3 3.49 C9.21 2.31, 22.06 2.56, 25.16 1.89 C28.26 1.23, 23.81 -0.44, 23.92 -0.51" stroke="#000000" stroke-width="1" fill="none"></path></g><g stroke-linecap="round"><g transform="translate(139.92050538237527 533.5504001644658) rotate(0 37.43807655401906 40.97398237124435)" fill-rule="evenodd"><path d="M1.21 0.12 L1.25 82.93 L2.45 84.87 L17.29 86.89 L40.51 89.34 L62.83 87.52 L75 82.74 L74.49 -0.07 L66.46 -4.13 L37.53 -5.88 L7.95 -3.33 L4.71 -2.97 L0.11 -1.43" stroke="none" stroke-width="0" fill="#ced4da" fill-rule="evenodd"></path><path d="M0.31 -0.25 C0.31 12.13, 1.03 60.84, 0.88 74.31 C0.74 87.79, -1.07 78.77, -0.56 80.61 C-0.04 82.45, 0.91 83.89, 3.96 85.34 C7.01 86.79, 11.83 88.8, 17.74 89.32 C23.66 89.85, 32.1 88.72, 39.47 88.49 C46.84 88.27, 56.34 88.79, 61.96 87.95 C67.57 87.11, 71.04 84.82, 73.15 83.46 C75.27 82.11, 74.31 81.54, 74.62 79.84 C74.93 78.13, 74.95 85.38, 75.01 73.25 C75.06 61.12, 74.84 19.28, 74.94 7.04 C75.04 -5.19, 76.66 1.85, 75.58 -0.15 C74.51 -2.14, 71.17 -3.96, 68.5 -4.91 C65.82 -5.86, 65.03 -5.31, 59.51 -5.84 C53.99 -6.37, 42.51 -7.95, 35.37 -8.1 C28.24 -8.24, 22.06 -7.62, 16.71 -6.73 C11.37 -5.85, 6.14 -3.98, 3.29 -2.77 C0.44 -1.56, 0.27 -0.03, -0.38 0.52 C-1.03 1.07, -0.71 0.72, -0.6 0.53 M-0.98 -1.43 C-1.17 10.64, 0.37 58.97, 0.27 72.79 C0.16 86.6, -2.28 79.16, -1.62 81.46 C-0.96 83.75, 1.23 85.7, 4.25 86.57 C7.27 87.43, 10.46 85.96, 16.52 86.67 C22.58 87.38, 32.92 90.78, 40.63 90.8 C48.34 90.82, 57.53 88.12, 62.78 86.8 C68.04 85.48, 69.85 83.74, 72.15 82.86 C74.44 81.99, 75.94 82.7, 76.55 81.55 C77.15 80.4, 75.99 88.74, 75.79 75.96 C75.59 63.17, 75.5 17.59, 75.34 4.84 C75.17 -7.9, 76 0.75, 74.8 -0.5 C73.6 -1.74, 70.82 -1.7, 68.16 -2.62 C65.5 -3.53, 64.34 -4.93, 58.85 -5.97 C53.36 -7.01, 42.15 -8.93, 35.21 -8.85 C28.26 -8.77, 22.71 -6.68, 17.18 -5.51 C11.66 -4.34, 5.25 -2.94, 2.08 -1.83 C-1.09 -0.71, -1.73 0.7, -1.84 1.18 C-1.96 1.66, 0.91 1.11, 1.36 1.07" stroke="#000000" stroke-width="1" fill="none"></path></g></g><g stroke-linecap="round" transform="translate(140.1864379730614 524.7974320084395) rotate(0 37.265041038570416 7.536574193636625)"><path d="M22.91 0.64 C29.46 -0.21, 39.8 -0.52, 47.57 0.06 C55.34 0.64, 65.2 2.78, 69.54 4.13 C73.87 5.49, 74.82 6.71, 73.57 8.21 C72.32 9.7, 67.95 11.84, 62.05 13.1 C56.15 14.36, 46.11 15.81, 38.16 15.77 C30.21 15.73, 20.52 14.04, 14.33 12.84 C8.14 11.64, 2.68 9.86, 1.03 8.56 C-0.62 7.25, -1.06 6.41, 4.44 5 C9.94 3.59, 27.27 0.97, 34.03 0.11 C40.78 -0.76, 45 -0.32, 44.97 -0.2 M47.5 0.43 C54.55 0.63, 62.89 2.1, 67.32 3.49 C71.75 4.88, 74.66 7.04, 74.07 8.77 C73.48 10.5, 69.28 12.75, 63.77 13.86 C58.25 14.97, 49.24 15.53, 40.99 15.45 C32.73 15.37, 20.71 14.36, 14.23 13.35 C7.76 12.35, 3.7 10.95, 2.14 9.41 C0.59 7.87, 1.7 5.66, 4.92 4.11 C8.14 2.57, 14.33 0.63, 21.48 0.16 C28.63 -0.32, 43.5 1.12, 47.83 1.24 C52.17 1.36, 47.75 0.87, 47.48 0.89" stroke="none" stroke-width="0" fill="#fff"></path><path d="M28.73 0.6 C36.28 0.07, 47.81 -0.31, 54.84 0.39 C61.87 1.09, 67.84 3.26, 70.92 4.81 C74 6.37, 75.56 8.22, 73.31 9.7 C71.07 11.18, 64.31 12.82, 57.45 13.72 C50.6 14.61, 40.19 15.2, 32.19 15.05 C24.19 14.91, 14.69 13.86, 9.47 12.85 C4.24 11.84, 1.17 10.78, 0.83 9 C0.48 7.22, 1.13 3.65, 7.41 2.16 C13.69 0.68, 31.44 0.47, 38.52 0.08 C45.6 -0.31, 49.83 -0.15, 49.89 -0.19 M35.92 0.71 C43.35 0.61, 53.39 1.55, 59.76 2.31 C66.13 3.07, 72.29 3.78, 74.14 5.27 C76 6.76, 74.59 9.48, 70.89 11.23 C67.2 12.99, 59.38 15.07, 51.97 15.8 C44.55 16.53, 34.16 16.49, 26.41 15.61 C18.66 14.73, 9.74 12.02, 5.47 10.52 C1.21 9.02, -0.5 8.04, 0.84 6.59 C2.18 5.15, 7.56 2.93, 13.53 1.84 C19.49 0.76, 32.86 0.24, 36.62 0.09 C40.38 -0.06, 36 0.71, 36.07 0.93" stroke="#000000" stroke-width="1" fill="none"></path></g><g stroke-linecap="round"><g transform="translate(363.8490768109441 536.4075430215889) rotate(0 37.47440294323496 39.79341488743012)" fill-rule="evenodd"><path d="M1.81 1.08 L-0.07 82.54 L0.1 83.64 L17.29 89.25 L41.93 90.39 L61.72 87.78 L73.61 82.87 L74.52 -0.47 L66.35 -3.82 L37.65 -7.19 L7.9 -5.42 L4.55 -3.1 L1.6 -0.19" stroke="none" stroke-width="0" fill="#ced4da" fill-rule="evenodd"></path><path d="M0.73 0.07 C0.87 12.54, 1.11 60.47, 1.12 74.17 C1.14 87.87, 0.37 80.55, 0.83 82.25 C1.29 83.94, 1.08 83.34, 3.87 84.35 C6.67 85.35, 11.48 87.51, 17.61 88.29 C23.75 89.08, 33.31 89.17, 40.68 89.06 C48.05 88.96, 56.46 88.4, 61.83 87.65 C67.2 86.91, 70.65 85.62, 72.89 84.58 C75.12 83.55, 74.76 83, 75.23 81.46 C75.7 79.91, 75.93 87.68, 75.7 75.3 C75.46 62.92, 73.9 19.74, 73.84 7.16 C73.77 -5.42, 75.99 1.79, 75.29 -0.19 C74.59 -2.18, 72.34 -3.97, 69.64 -4.74 C66.94 -5.51, 64.51 -4.2, 59.09 -4.83 C53.68 -5.46, 44.07 -8.1, 37.13 -8.52 C30.19 -8.93, 23.1 -8.03, 17.45 -7.32 C11.81 -6.6, 6.02 -5.37, 3.25 -4.24 C0.48 -3.11, 1.49 -1.26, 0.81 -0.53 C0.13 0.2, -0.57 -0.03, -0.84 0.13 M-0.35 -0.94 C-0.32 11.26, 0.49 59.03, 0.64 72.57 C0.78 86.11, -0.09 78.22, 0.49 80.3 C1.07 82.38, 1.49 83.64, 4.13 85.05 C6.76 86.46, 10.54 88.27, 16.32 88.76 C22.1 89.25, 31.1 88.41, 38.81 88 C46.53 87.6, 57.1 86.92, 62.59 86.34 C68.08 85.77, 69.87 85.57, 71.74 84.57 C73.61 83.57, 73.58 81.88, 73.82 80.36 C74.06 78.84, 73.21 87.98, 73.19 75.43 C73.16 62.87, 73.46 17.68, 73.66 5.02 C73.85 -7.65, 74.98 0.66, 74.35 -0.56 C73.72 -1.79, 72.59 -1.71, 69.9 -2.36 C67.21 -3, 63.55 -3.23, 58.21 -4.42 C52.88 -5.61, 44.54 -9.16, 37.89 -9.49 C31.24 -9.82, 24.29 -7.31, 18.31 -6.4 C12.34 -5.5, 5.07 -5.07, 2.02 -4.08 C-1.04 -3.08, 0.14 -1.17, -0.03 -0.42 C-0.2 0.34, 1.11 0.58, 0.99 0.45" stroke="#000000" stroke-width="1" fill="none"></path></g></g><g stroke-linecap="round" transform="translate(364.11500940163023 527.6545748655626) rotate(0 37.265041038570416 7.536574193636625)"><path d="M22.43 1.43 C29.21 0.56, 40.16 -0.4, 47.76 -0.03 C55.36 0.34, 63.48 2.22, 68.01 3.65 C72.53 5.09, 75.73 7.03, 74.93 8.57 C74.13 10.11, 69.08 11.74, 63.22 12.91 C57.36 14.08, 47.95 15.44, 39.77 15.59 C31.6 15.74, 20.55 14.9, 14.17 13.81 C7.79 12.72, 3.19 10.47, 1.49 9.02 C-0.2 7.58, -0.66 6.54, 4.01 5.15 C8.68 3.76, 23.96 1.49, 29.5 0.68 C35.04 -0.12, 37.16 0.23, 37.25 0.34 M47.98 0.7 C55.44 0.89, 62.31 1.81, 66.51 2.81 C70.72 3.82, 73.91 4.94, 73.18 6.73 C72.45 8.51, 67.66 11.89, 62.13 13.51 C56.6 15.12, 47.8 16.35, 40.02 16.41 C32.24 16.47, 21.75 15.19, 15.45 13.84 C9.14 12.49, 4.33 10.1, 2.19 8.29 C0.05 6.48, -0.65 4.46, 2.61 2.99 C5.87 1.51, 14.24 0.06, 21.75 -0.56 C29.25 -1.19, 43.67 -0.68, 47.62 -0.76 C51.56 -0.85, 45.56 -1.15, 45.41 -1.07" stroke="none" stroke-width="0" fill="#fff"></path><path d="M49.07 0.71 C56.3 1.23, 65.34 2.94, 69.49 4.32 C73.65 5.7, 75.32 7.51, 73.99 8.96 C72.66 10.42, 67.51 11.99, 61.53 13.07 C55.55 14.16, 46.03 15.33, 38.11 15.48 C30.19 15.63, 20.12 15.18, 14.02 13.96 C7.93 12.73, 2.93 9.68, 1.54 8.11 C0.15 6.55, 1.89 5.84, 5.68 4.58 C9.47 3.31, 15.46 1.1, 24.3 0.53 C33.14 -0.03, 51.51 0.65, 58.72 1.2 C65.93 1.75, 67.93 3.72, 67.57 3.82 M28.46 -0.34 C35.47 -0.58, 44.84 -0.01, 51.76 0.85 C58.68 1.7, 66.15 3.22, 69.97 4.79 C73.79 6.36, 76.52 8.61, 74.68 10.25 C72.84 11.89, 65.79 13.84, 58.92 14.64 C52.06 15.44, 41.47 15.21, 33.5 15.06 C25.53 14.9, 16.39 14.7, 11.09 13.73 C5.78 12.75, 2.38 10.93, 1.65 9.21 C0.92 7.49, 2.53 4.86, 6.69 3.4 C10.85 1.94, 23.19 0.87, 26.63 0.45 C30.07 0.04, 26.95 0.64, 27.33 0.89" stroke="#000000" stroke-width="1" fill="none"></path></g><g stroke-linecap="round"><g transform="translate(493.49193395380644 352.4789715930383) rotate(0 37.18361579438897 39.957675803500024)" fill-rule="evenodd"><path d="M1.6 -0.19 L-0.89 80.6 L1.64 84.91 L17.64 88.76 L39.76 89.58 L62.67 85.72 L75.07 83.56 L74.34 -0.92 L67.6 -5.87 L37.39 -8.68 L9.92 -6.27 L4.1 -2.08 L-1.84 0.31" stroke="none" stroke-width="0" fill="#ced4da" fill-rule="evenodd"></path><path d="M0.07 -0.86 C-0.1 11.51, -0.22 60.72, -0.09 74.31 C0.04 87.9, 0.22 79.01, 0.83 80.7 C1.43 82.39, 0.78 83.4, 3.53 84.46 C6.28 85.51, 11.1 86.35, 17.32 87.04 C23.53 87.73, 33.55 88.5, 40.8 88.61 C48.04 88.72, 55.51 88.42, 60.77 87.71 C66.03 87, 69.83 85.37, 72.34 84.34 C74.85 83.32, 75.38 83.12, 75.83 81.55 C76.28 79.99, 75.32 87.53, 75.05 74.96 C74.78 62.39, 74.31 18.58, 74.2 6.14 C74.09 -6.29, 74.97 1.91, 74.4 0.37 C73.82 -1.17, 73.25 -2.07, 70.76 -3.11 C68.28 -4.15, 65.34 -5.11, 59.49 -5.85 C53.65 -6.59, 42.69 -7.5, 35.7 -7.57 C28.71 -7.64, 22.92 -7.16, 17.57 -6.29 C12.23 -5.43, 6.43 -3.49, 3.63 -2.4 C0.83 -1.3, 1.53 -0.09, 0.76 0.27 C-0.01 0.63, -0.99 -0.19, -0.98 -0.24 M-1.36 1.31 C-1.79 13.36, -1.52 59.4, -1.21 72.78 C-0.9 86.17, -0.31 79.53, 0.49 81.6 C1.29 83.68, 1.04 84.35, 3.6 85.22 C6.17 86.1, 9.97 86.5, 15.87 86.85 C21.76 87.19, 31.48 87.38, 39 87.31 C46.51 87.24, 55.05 86.95, 60.97 86.43 C66.9 85.91, 72.27 85.19, 74.56 84.2 C76.86 83.22, 74.51 82.06, 74.73 80.51 C74.95 78.96, 75.95 87.14, 75.86 74.91 C75.78 62.68, 74.69 19.57, 74.21 7.13 C73.73 -5.3, 74.03 2.07, 72.99 0.29 C71.95 -1.48, 70.32 -2.48, 67.96 -3.53 C65.59 -4.57, 64.2 -5.23, 58.82 -5.98 C53.45 -6.73, 42.43 -7.63, 35.71 -8.05 C28.98 -8.47, 24.01 -9.03, 18.49 -8.5 C12.98 -7.98, 5.7 -6.48, 2.6 -4.92 C-0.5 -3.37, 0.2 0, -0.11 0.81 C-0.41 1.61, 0.47 0.32, 0.77 -0.1" stroke="#000000" stroke-width="1" fill="none"></path></g></g><g stroke-linecap="round" transform="translate(493.7578665444926 343.72600343701197) rotate(0 37.265041038570416 7.536574193636625)"><path d="M41.26 -0.89 C48.99 -0.8, 58.36 1.76, 63.93 2.92 C69.5 4.07, 74.12 4.69, 74.7 6.05 C75.27 7.42, 72.22 9.79, 67.39 11.09 C62.56 12.4, 53.32 13.37, 45.71 13.86 C38.1 14.35, 28.63 14.63, 21.73 14.05 C14.84 13.48, 7.69 11.73, 4.31 10.41 C0.92 9.1, -0.41 7.78, 1.42 6.17 C3.25 4.55, 8.24 1.72, 15.28 0.73 C22.33 -0.25, 38.34 0.24, 43.67 0.27 C49 0.3, 47.35 0.97, 47.27 0.92 M19.92 -0.51 C26.12 -0.98, 36.08 0.2, 44.03 0.91 C51.99 1.62, 62.49 2.67, 67.66 3.76 C72.83 4.85, 75.53 5.77, 75.07 7.47 C74.6 9.16, 70.11 12.42, 64.86 13.92 C59.61 15.42, 51.57 16.38, 43.56 16.46 C35.54 16.55, 23.51 15.41, 16.78 14.44 C10.04 13.47, 5.26 12.46, 3.15 10.64 C1.04 8.83, 1.43 5.1, 4.13 3.56 C6.83 2.02, 16.5 1.6, 19.35 1.41 C22.2 1.21, 20.99 2.11, 21.22 2.38" stroke="none" stroke-width="0" fill="#fff"></path><path d="M49.16 0.46 C56.42 1.05, 64.37 3.15, 68.44 4.42 C72.52 5.69, 74.76 6.71, 73.62 8.08 C72.47 9.45, 67.53 11.3, 61.58 12.62 C55.63 13.93, 45.84 15.85, 37.92 15.98 C30.01 16.11, 20.22 14.68, 14.11 13.42 C8 12.16, 2.81 10.02, 1.26 8.42 C-0.29 6.82, 0.91 4.99, 4.83 3.84 C8.74 2.68, 15.99 1.91, 24.75 1.47 C33.52 1.02, 51.1 1.13, 57.4 1.17 C63.7 1.2, 62.96 1.61, 62.54 1.67 M44.13 0.49 C51.4 0.43, 58.95 1.15, 64.18 2.3 C69.42 3.46, 74.99 5.8, 75.53 7.44 C76.07 9.08, 72.69 10.98, 67.4 12.14 C62.12 13.31, 51.8 13.94, 43.83 14.43 C35.86 14.92, 26.43 15.7, 19.58 15.08 C12.73 14.46, 5.68 12.3, 2.73 10.69 C-0.21 9.08, -0.8 7.27, 1.9 5.44 C4.59 3.6, 11.97 0.45, 18.9 -0.32 C25.82 -1.09, 39.5 0.68, 43.45 0.79 C47.4 0.91, 42.51 0.48, 42.61 0.38" stroke="#000000" stroke-width="1" fill="none"></path></g><g stroke-linecap="round"><g transform="translate(345.63479109666514 183.55040016446583) rotate(0 37.21477718845745 40.10765020038161)" fill-rule="evenodd"><path d="M-1.6 -1.97 L-2.14 82.12 L0.49 85.45 L16.74 88.33 L41.2 87.51 L60.41 85.78 L74.88 80.94 L75.75 -2.47 L63.83 -7.01 L37.29 -9.42 L9.9 -6.91 L2.07 -2.13 L1.48 1.18" stroke="none" stroke-width="0" fill="#ced4da" fill-rule="evenodd"></path><path d="M-0.21 0.38 C0 12.67, 0.5 60.33, 0.67 73.91 C0.84 87.48, 0.44 79.99, 0.81 81.82 C1.18 83.65, 0 83.81, 2.88 84.87 C5.76 85.92, 11.74 87.48, 18.08 88.17 C24.42 88.85, 33.72 89.15, 40.91 88.98 C48.1 88.82, 55.78 87.89, 61.2 87.18 C66.62 86.47, 71.16 85.71, 73.45 84.72 C75.74 83.74, 74.73 82.98, 74.96 81.27 C75.19 79.57, 74.78 87.2, 74.86 74.49 C74.93 61.78, 75.46 17.39, 75.43 5.02 C75.39 -7.35, 75.68 1.73, 74.65 0.27 C73.62 -1.2, 71.59 -2.65, 69.25 -3.78 C66.91 -4.9, 65.98 -5.71, 60.6 -6.46 C55.22 -7.22, 44.06 -8.13, 36.96 -8.29 C29.86 -8.45, 23.55 -8.38, 18.01 -7.42 C12.47 -6.45, 6.93 -3.76, 3.74 -2.5 C0.55 -1.24, -0.65 -0.33, -1.14 0.14 C-1.63 0.62, 0.8 0.43, 0.81 0.35 M-1.79 -0.47 C-1.64 11.47, -0.43 58.21, -0.06 72.17 C0.32 86.13, 0.02 81.02, 0.46 83.3 C0.91 85.58, -0.15 84.97, 2.61 85.85 C5.37 86.72, 10.94 88.23, 17.03 88.57 C23.12 88.91, 31.73 87.76, 39.17 87.88 C46.6 88, 56.05 89.79, 61.63 89.28 C67.2 88.76, 70.64 86.32, 72.6 84.79 C74.56 83.25, 72.91 81.85, 73.4 80.08 C73.89 78.32, 75.12 86.63, 75.56 74.19 C76.01 61.74, 76.45 17.77, 76.08 5.42 C75.72 -6.92, 74.5 1.8, 73.37 0.14 C72.24 -1.52, 71.45 -3.37, 69.3 -4.54 C67.16 -5.72, 65.79 -6.15, 60.51 -6.92 C55.23 -7.69, 44.52 -9.21, 37.62 -9.15 C30.73 -9.09, 24.97 -7.84, 19.16 -6.55 C13.35 -5.26, 5.85 -2.62, 2.77 -1.42 C-0.32 -0.23, 1.14 0.24, 0.65 0.61 C0.17 0.98, 0.14 0.66, -0.15 0.79" stroke="#000000" stroke-width="1" fill="none"></path></g></g><g stroke-linecap="round" transform="translate(345.9007236873513 174.7974320084395) rotate(0 37.265041038570416 7.536574193636625)"><path d="M41.08 0.77 C48.94 0.97, 58.74 1.59, 64.25 2.59 C69.77 3.59, 73.46 5.12, 74.19 6.77 C74.92 8.43, 73.05 11.28, 68.65 12.52 C64.26 13.77, 55.63 13.8, 47.82 14.25 C40.01 14.7, 29.09 15.65, 21.78 15.22 C14.48 14.79, 7.51 13.32, 3.96 11.68 C0.42 10.04, -1.55 6.95, 0.5 5.37 C2.55 3.78, 9.12 3.12, 16.29 2.16 C23.46 1.2, 38.64 -0.26, 43.5 -0.41 C48.35 -0.56, 45.55 1.01, 45.44 1.26 M44.82 -1 C52.05 -0.41, 60.72 2.53, 65.5 3.84 C70.28 5.16, 73.42 5.34, 73.5 6.9 C73.58 8.46, 71.13 11.99, 65.98 13.2 C60.84 14.4, 50.65 14, 42.62 14.11 C34.6 14.22, 24.67 14.72, 17.82 13.86 C10.98 13, 4.15 10.52, 1.53 8.95 C-1.09 7.37, -1.1 5.76, 2.09 4.42 C5.28 3.07, 13.55 1.48, 20.66 0.88 C27.77 0.29, 40.5 1.12, 44.73 0.85 C48.97 0.57, 45.88 -0.6, 46.06 -0.77" stroke="none" stroke-width="0" fill="#fff"></path><path d="M49.24 1.08 C56.52 1.76, 65.12 3.25, 69.24 4.46 C73.37 5.68, 75.29 6.87, 73.97 8.38 C72.65 9.89, 67.26 12.36, 61.35 13.51 C55.44 14.65, 46.39 15.29, 38.51 15.25 C30.64 15.22, 20.36 14.25, 14.09 13.29 C7.82 12.33, 2.64 11.03, 0.92 9.5 C-0.8 7.96, -0.15 5.64, 3.76 4.09 C7.68 2.55, 15.48 0.55, 24.41 0.23 C33.34 -0.1, 50.91 1.7, 57.34 2.15 C63.78 2.6, 63.46 2.95, 63.04 2.92 M24.56 0.59 C31.7 -0.02, 45.02 0.5, 52.42 1 C59.82 1.51, 65.61 2.51, 68.95 3.62 C72.3 4.73, 74.2 5.91, 72.47 7.66 C70.75 9.41, 64.79 12.67, 58.6 14.13 C52.41 15.59, 43.13 16.58, 35.32 16.43 C27.52 16.28, 17.46 14.76, 11.78 13.25 C6.11 11.74, 2.42 9.21, 1.27 7.36 C0.12 5.51, 0.72 3.53, 4.86 2.16 C9 0.78, 22.46 -0.46, 26.12 -0.91 C29.78 -1.35, 26.88 -0.61, 26.82 -0.52" stroke="#000000" stroke-width="1" fill="none"></path></g><g stroke-linecap="round"><g transform="translate(140.63479109666878 182.12182873590064) rotate(0 37.765586874911605 40.07625479924536)" fill-rule="evenodd"><path d="M-0.24 1.81 L1.1 83.23 L-0.05 84.3 L18.99 89.15 L41.9 87.52 L61.2 88.27 L76.25 84.43 L73.9 0.87 L67.58 -3.51 L36.9 -6.84 L10 -6.64 L2.51 -4.7 L-1.79 1.19" stroke="none" stroke-width="0" fill="#ced4da" fill-rule="evenodd"></path><path d="M0.64 -0.57 C0.53 11.58, 0.49 58.65, 0.47 72.43 C0.45 86.21, 0.16 79.99, 0.54 82.13 C0.92 84.28, -0.16 84.23, 2.76 85.29 C5.68 86.35, 12.06 87.92, 18.09 88.5 C24.11 89.08, 31.81 89.12, 38.9 88.77 C46 88.42, 55.14 87.11, 60.65 86.4 C66.16 85.68, 69.67 85.2, 71.96 84.47 C74.25 83.73, 73.94 83.69, 74.39 82 C74.84 80.31, 74.46 87.11, 74.65 74.31 C74.84 61.51, 75.7 17.8, 75.54 5.19 C75.38 -7.42, 74.64 0.31, 73.67 -1.37 C72.7 -3.06, 72 -4, 69.72 -4.9 C67.43 -5.8, 65.7 -6.12, 59.95 -6.78 C54.2 -7.45, 42.16 -8.75, 35.23 -8.9 C28.3 -9.05, 23.67 -8.47, 18.37 -7.69 C13.07 -6.92, 6.61 -5.63, 3.42 -4.26 C0.24 -2.88, -0.3 -0.27, -0.73 0.56 C-1.15 1.38, 0.69 0.84, 0.89 0.71 M-0.48 1.74 C-0.84 14.08, -0.45 60.51, -0.36 73.58 C-0.27 86.64, -0.41 77.97, 0.06 80.12 C0.52 82.27, -0.4 85, 2.43 86.49 C5.26 87.98, 10.82 88.89, 17.04 89.07 C23.27 89.25, 32.48 87.72, 39.77 87.56 C47.06 87.39, 55.08 88.62, 60.79 88.09 C66.49 87.56, 71.42 85.54, 73.99 84.39 C76.55 83.24, 75.98 82.93, 76.19 81.19 C76.4 79.44, 75.24 86.5, 75.25 73.91 C75.26 61.33, 76.21 17.78, 76.25 5.68 C76.3 -6.43, 76.57 2.67, 75.53 1.29 C74.5 -0.09, 72.69 -1.14, 70.02 -2.59 C67.35 -4.04, 65.36 -6.77, 59.52 -7.41 C53.68 -8.04, 42.23 -6.49, 34.99 -6.42 C27.74 -6.35, 21.5 -7.36, 16.05 -6.98 C10.6 -6.59, 4.74 -5.47, 2.28 -4.1 C-0.18 -2.73, 1.68 0.33, 1.29 1.24 C0.9 2.14, -0.01 1.29, -0.03 1.33" stroke="#000000" stroke-width="1" fill="none"></path></g></g><g stroke-linecap="round" transform="translate(140.9007236873549 173.3688605798743) rotate(0 37.265041038570416 7.536574193636625)"><path d="M45 -0.61 C52.32 -0.13, 61.14 2.24, 65.95 3.55 C70.75 4.85, 73.9 5.64, 73.83 7.22 C73.77 8.8, 70.79 11.81, 65.56 13.01 C60.33 14.21, 50.44 14.27, 42.45 14.41 C34.46 14.56, 24.44 14.73, 17.63 13.87 C10.82 13.01, 4.14 10.79, 1.59 9.23 C-0.95 7.67, -0.8 5.89, 2.34 4.5 C5.49 3.1, 12.06 1.43, 20.47 0.87 C28.87 0.32, 46.11 1.15, 52.75 1.17 C59.4 1.18, 60.38 1.07, 60.33 0.98 M43.82 0 C51.34 0.2, 60.38 0.23, 65.63 1.65 C70.88 3.07, 75.4 6.85, 75.3 8.51 C75.19 10.17, 70.35 10.52, 65.02 11.61 C59.69 12.7, 51.15 14.42, 43.31 15.04 C35.47 15.65, 24.91 16.36, 17.99 15.31 C11.06 14.25, 4.14 10.36, 1.76 8.71 C-0.63 7.06, 0.96 6.47, 3.68 5.41 C6.4 4.35, 11.1 3.35, 18.09 2.35 C25.07 1.35, 41.42 -0.18, 45.6 -0.58 C49.78 -0.99, 43.31 -0.23, 43.16 -0.07" stroke="none" stroke-width="0" fill="#fff"></path><path d="M25.02 0.51 C32.14 -0.08, 44.69 0.31, 52.08 0.85 C59.48 1.4, 65.92 2.54, 69.39 3.76 C72.85 4.98, 74.59 6.46, 72.87 8.16 C71.16 9.85, 65.32 12.62, 59.09 13.92 C52.85 15.23, 43.33 16.1, 35.47 15.98 C27.61 15.86, 17.67 14.57, 11.92 13.2 C6.16 11.83, 2.08 9.52, 0.96 7.76 C-0.17 5.99, 0.2 4.02, 5.16 2.61 C10.13 1.19, 25.62 -0.2, 30.73 -0.72 C35.85 -1.24, 35.93 -0.62, 35.87 -0.52 M44.86 -0.63 C52.68 -0.22, 63.08 2.67, 68.16 4.21 C73.23 5.75, 76.05 7.22, 75.32 8.61 C74.59 10.01, 69.24 11.36, 63.77 12.59 C58.31 13.82, 50.17 15.95, 42.53 16.01 C34.88 16.07, 24.67 13.79, 17.9 12.94 C11.14 12.08, 4.27 12.07, 1.94 10.9 C-0.38 9.73, 1.01 7.67, 3.97 5.93 C6.94 4.19, 12.6 1.2, 19.74 0.45 C26.87 -0.3, 42.17 1.57, 46.78 1.43 C51.4 1.29, 47.43 -0.52, 47.44 -0.36" stroke="#000000" stroke-width="1" fill="none"></path></g><g stroke-linecap="round"><g transform="translate(501.7872399144653 345.7549520550383) rotate(0 -56.66436299765883 -77.32671738717545)"><path d="M0.28 -0.35 C-18.57 -25.74, -94.91 -126.8, -113.61 -152.39 M-1.03 -1.58 C-19.45 -27.33, -92.78 -129.04, -111.31 -154.3" stroke="#000000" stroke-width="1" fill="none"></path></g><g transform="translate(501.7872399144653 345.7549520550383) rotate(0 -56.66436299765883 -77.32671738717545)"><path d="M-87.03 -138.83 C-92.16 -140.25, -101.05 -146.12, -109.86 -154.11 M-86.33 -136.95 C-91.84 -140.76, -97.68 -144.39, -111.63 -155.18" stroke="#000000" stroke-width="1" fill="none"></path></g><g transform="translate(501.7872399144653 345.7549520550383) rotate(0 -56.66436299765883 -77.32671738717545)"><path d="M-103.64 -126.78 C-104.49 -131.33, -109.11 -140.3, -109.86 -154.11 M-102.93 -124.89 C-105.09 -131.12, -107.48 -137.26, -111.63 -155.18" stroke="#000000" stroke-width="1" fill="none"></path></g></g><g stroke-linecap="round"><g transform="translate(341.58148096346486 178.99444673089602) rotate(0 -60.40122302418604 1.8621658127303817)"><path d="M-0.61 1.17 C-20.63 1.72, -101.05 2.99, -120.95 2.98 M1.27 0.74 C-18.87 0.96, -101.77 1.03, -122.07 1.21" stroke="#000000" stroke-width="1" fill="none"></path></g><g transform="translate(341.58148096346486 178.99444673089602) rotate(0 -60.40122302418604 1.8621658127303817)"><path d="M-91.97 -9.7 C-99.31 -5.94, -108.9 -6.13, -120.15 1.77 M-93.02 -9.91 C-104.47 -4.31, -113.81 -1.6, -122.18 1.7" stroke="#000000" stroke-width="1" fill="none"></path></g><g transform="translate(341.58148096346486 178.99444673089602) rotate(0 -60.40122302418604 1.8621658127303817)"><path d="M-91.88 10.82 C-99.2 9.84, -108.8 4.93, -120.15 1.77 M-92.93 10.61 C-104.43 8.63, -113.81 3.75, -122.18 1.7" stroke="#000000" stroke-width="1" fill="none"></path></g></g><g stroke-linecap="round"><g transform="translate(144.88555570623794 182.6504202832366) rotate(0 -44.49094548872017 82.96127400783735)"><path d="M0.71 0.45 C-14.11 27.95, -74.62 137.35, -89.69 164.67 M-0.38 -0.36 C-14.76 27.39, -73.04 138.62, -87.54 166.28" stroke="#000000" stroke-width="1" fill="none"></path></g><g transform="translate(144.88555570623794 182.6504202832366) rotate(0 -44.49094548872017 82.96127400783735)"><path d="M-82.8 134.76 C-84.32 141.7, -85.76 149.53, -85.81 165.7 M-83.53 136.92 C-84.72 145.18, -86.41 153.02, -86.66 166.95" stroke="#000000" stroke-width="1" fill="none"></path></g><g transform="translate(144.88555570623794 182.6504202832366) rotate(0 -44.49094548872017 82.96127400783735)"><path d="M-64.62 144.28 C-70.36 149.11, -76.05 154.71, -85.81 165.7 M-65.35 146.45 C-71.38 152.19, -77.94 157.47, -86.66 166.95" stroke="#000000" stroke-width="1" fill="none"></path></g></g><g stroke-linecap="round"><g transform="translate(58.54718624862653 375.3440252305081) rotate(0 39.79862054274781 77.5874393092563)"><path d="M-0.46 -0.7 C12.94 25.46, 66.56 129.69, 80.06 155.87 M1.49 1.55 C14.77 27.44, 66.04 128.5, 79.13 154" stroke="#000000" stroke-width="1" fill="none"></path></g><g transform="translate(58.54718624862653 375.3440252305081) rotate(0 39.79862054274781 77.5874393092563)"><path d="M56.02 133.59 C63.74 140, 70.54 146.67, 77.86 152.36 M58.08 134.43 C65.24 140.89, 72.32 148.79, 78.73 153.15" stroke="#000000" stroke-width="1" fill="none"></path></g><g transform="translate(58.54718624862653 375.3440252305081) rotate(0 39.79862054274781 77.5874393092563)"><path d="M74.3 124.27 C76.98 133.13, 78.82 142.33, 77.86 152.36 M76.36 125.11 C76.99 134.81, 77.6 146.01, 78.73 153.15" stroke="#000000" stroke-width="1" fill="none"></path></g></g><g stroke-linecap="round"><g transform="translate(217.33429422884 537.2985661439161) rotate(0 72.55485301678164 -1.885934372923657)"><path d="M0.9 -0.06 C25.21 -0.8, 121.2 -3.07, 145.19 -3.71 M-0.08 -1.14 C24.15 -1.79, 120.36 -2.21, 144.38 -2.54" stroke="#000000" stroke-width="1" fill="none"></path></g><g transform="translate(217.33429422884 537.2985661439161) rotate(0 72.55485301678164 -1.885934372923657)"><path d="M116.17 8.4 C121.98 5.01, 128.52 0.82, 144.45 -1.02 M116.16 7.78 C127.85 3.59, 138.34 0.21, 143.43 -3.02" stroke="#000000" stroke-width="1" fill="none"></path></g><g transform="translate(217.33429422884 537.2985661439161) rotate(0 72.55485301678164 -1.885934372923657)"><path d="M116 -12.13 C121.97 -10.47, 128.55 -9.61, 144.45 -1.02 M115.98 -12.74 C127.55 -8.96, 138.11 -4.38, 143.43 -3.02" stroke="#000000" stroke-width="1" fill="none"></path></g></g><g stroke-linecap="round"><g transform="translate(445.5918789451862 534.9652883247254) rotate(0 35.680647171227974 -84.55685965724479)"><path d="M0.33 0.21 C11.99 -27.52, 58.31 -139.5, 69.99 -167.39 M-0.96 -0.72 C11.1 -28.74, 60.57 -141.27, 72.32 -169.33" stroke="#000000" stroke-width="1" fill="none"></path></g><g transform="translate(445.5918789451862 534.9652883247254) rotate(0 35.680647171227974 -84.55685965724479)"><path d="M70.95 -140.6 C71.94 -148.79, 72.97 -157.97, 71.94 -170.13 M70.29 -139.57 C70.62 -150.67, 72.14 -161.34, 71.79 -169.96" stroke="#000000" stroke-width="1" fill="none"></path></g><g transform="translate(445.5918789451862 534.9652883247254) rotate(0 35.680647171227974 -84.55685965724479)"><path d="M52.1 -148.71 C58.66 -154.53, 65.32 -161.29, 71.94 -170.13 M51.44 -147.69 C58.8 -155.89, 67.34 -163.53, 71.79 -169.96" stroke="#000000" stroke-width="1" fill="none"></path></g></g><g stroke-linecap="round" transform="translate(218.6480309210092 51.491275150816364) rotate(0 51.381637250717176 18.33335413640816)"><path d="M10.96 -0.2 L95.97 -0.99 L101.68 4.71 L103.79 31.88 L98.84 32.46 L95.32 38.52 L6.1 34.8 L0.3 32.98 L-0.79 7.9 L1.37 1.09 L9.78 -0.44" stroke="none" stroke-width="0" fill="#ced4da"></path><path d="M9.17 0 M9.17 0 C33.89 0.88, 55.69 0.8, 93.6 0 M9.17 0 C39.53 0.02, 70.59 1.32, 93.6 0 M93.6 0 C99.78 -0.9, 101.15 4.57, 102.76 9.17 M93.6 0 C97.85 1.65, 103.87 1.38, 102.76 9.17 M102.76 9.17 C102.33 16.7, 103.45 24.2, 102.76 27.5 M102.76 9.17 C102.12 14.07, 102.45 20.5, 102.76 27.5 M102.76 27.5 C102.2 34.02, 98.89 38.56, 93.6 36.67 M102.76 27.5 C101.27 32.8, 100.98 37.22, 93.6 36.67 M93.6 36.67 C60.54 37.34, 30.28 36.83, 9.17 36.67 M93.6 36.67 C66.72 37.74, 41.06 38.08, 9.17 36.67 M9.17 36.67 C4.12 35.6, 0.54 35.52, 0 27.5 M9.17 36.67 C4.05 36.29, -0.11 34.49, 0 27.5 M0 27.5 C-1.3 22.76, 1.43 16.87, 0 9.17 M0 27.5 C0.72 23.74, -0.97 18.69, 0 9.17 M0 9.17 C-0.97 3.19, 1.33 -1.58, 9.17 0 M0 9.17 C-1.59 4.98, 2.18 1.75, 9.17 0" stroke="#000000" stroke-width="1" fill="none"></path></g><g stroke-linecap="round" transform="translate(247.11297550121526 10) rotate(0 34.736881521612304 33.530739802110475)"><path d="M38 -0.41 C44.47 -0.06, 53.89 4.46, 59.11 9.06 C64.32 13.67, 68.23 20.69, 69.29 27.23 C70.36 33.76, 68.49 42.24, 65.5 48.27 C62.51 54.3, 57.05 60.14, 51.33 63.38 C45.61 66.62, 37.79 68.68, 31.17 67.71 C24.55 66.74, 16.66 62.02, 11.62 57.56 C6.58 53.1, 2.24 47.32, 0.92 40.94 C-0.41 34.55, 0.85 25.3, 3.66 19.25 C6.48 13.19, 11.13 7.68, 17.8 4.61 C24.47 1.55, 38.44 1.14, 43.7 0.84 C48.96 0.55, 49.45 2.11, 49.37 2.84 M25.5 2.58 C31.85 0.09, 40.86 -1.37, 46.96 0.55 C53.06 2.46, 58.33 8.58, 62.1 14.05 C65.86 19.53, 69.75 26.9, 69.56 33.41 C69.36 39.92, 64.92 47.84, 60.92 53.14 C56.93 58.43, 51.72 63.12, 45.57 65.19 C39.41 67.26, 30.55 67.72, 24 65.58 C17.44 63.45, 10.04 57.91, 6.23 52.38 C2.42 46.86, 0.85 39.03, 1.12 32.41 C1.39 25.79, 3.78 17.86, 7.83 12.66 C11.89 7.45, 22.3 3.21, 25.44 1.18 C28.58 -0.84, 26.77 -0.27, 26.68 0.5" stroke="none" stroke-width="0" fill="#ced4da"></path><path d="M30.06 -0.75 C36.45 -1.77, 46.64 2.01, 52.77 5.31 C58.9 8.61, 64.21 13.09, 66.85 19.05 C69.49 25, 70.14 34.58, 68.62 41.02 C67.11 47.46, 62.83 53.47, 57.75 57.67 C52.67 61.88, 44.78 65.46, 38.13 66.25 C31.49 67.05, 23.73 65.56, 17.87 62.46 C12.01 59.35, 5.98 53.51, 2.96 47.61 C-0.06 41.71, -1.65 33.68, -0.25 27.05 C1.15 20.42, 5.75 12.26, 11.36 7.85 C16.98 3.45, 29.42 1.92, 33.44 0.61 C37.46 -0.7, 35.44 -0.37, 35.48 -0.01 M49.34 2.21 C55.36 4.34, 63.09 10.5, 66.57 16.63 C70.05 22.75, 71.53 32.1, 70.2 38.98 C68.87 45.86, 63.33 53.52, 58.59 57.91 C53.85 62.29, 48.37 64.23, 41.77 65.29 C35.17 66.35, 25.21 66.74, 19 64.27 C12.78 61.79, 7.62 56.36, 4.5 50.44 C1.37 44.52, -0.7 35.63, 0.26 28.75 C1.23 21.87, 5.67 13.95, 10.28 9.16 C14.9 4.37, 21.18 1.02, 27.95 -0.01 C34.73 -1.03, 47.23 2.43, 50.91 3 C54.59 3.56, 50.19 3, 50.02 3.41" stroke="#000000" stroke-width="1" fill="none"></path></g><g stroke-linecap="round" transform="translate(201.76204684799814 40.3947713314119) rotate(0 24.122834390009302 23.399149358308932)"><path d="M16.69 1.98 C21.27 -0.07, 28.06 -1.12, 32.72 0.71 C37.38 2.54, 42.13 8.31, 44.66 12.94 C47.18 17.57, 48.75 23.84, 47.86 28.51 C46.96 33.18, 43.26 37.96, 39.3 40.96 C35.35 43.95, 29.23 46.39, 24.13 46.49 C19.03 46.59, 12.53 44.73, 8.7 41.55 C4.87 38.37, 2.11 32.42, 1.16 27.41 C0.21 22.39, -0.47 15.92, 3.01 11.46 C6.49 7, 18.26 2.45, 22.03 0.62 C25.8 -1.21, 25.68 0.23, 25.63 0.48 M19.48 1.56 C23.94 0.32, 30.28 -0.65, 34.89 1.63 C39.51 3.91, 44.93 10.32, 47.15 15.25 C49.38 20.19, 50.25 26.81, 48.25 31.26 C46.25 35.71, 39.91 39.41, 35.15 41.97 C30.4 44.53, 24.8 47.35, 19.72 46.63 C14.64 45.91, 8.15 41.22, 4.69 37.64 C1.23 34.06, -1.04 29.79, -1.03 25.16 C-1.02 20.54, 1.24 13.96, 4.74 9.89 C8.24 5.82, 17.48 2.05, 19.97 0.74 C22.45 -0.57, 19.62 1.59, 19.62 2.01" stroke="none" stroke-width="0" fill="#ced4da"></path><path d="M32.56 2.71 C37.33 4.5, 44.13 8.92, 46.53 13.22 C48.94 17.52, 48.18 23.75, 46.99 28.5 C45.8 33.24, 43.52 38.7, 39.4 41.67 C35.28 44.64, 27.64 46.45, 22.26 46.31 C16.87 46.17, 10.81 44.2, 7.09 40.84 C3.38 37.48, 0.46 31.33, -0.04 26.14 C-0.53 20.96, 1.22 13.89, 4.12 9.72 C7.01 5.54, 12.19 2.2, 17.32 1.07 C22.45 -0.07, 31.41 2.42, 34.91 2.93 C38.4 3.44, 38.45 3.76, 38.29 4.12 M17.35 0.28 C21.54 -1.35, 28.03 0.79, 32.55 3.08 C37.08 5.38, 41.88 9.93, 44.51 14.05 C47.13 18.17, 49.13 22.92, 48.3 27.79 C47.46 32.66, 43.99 40.19, 39.5 43.28 C35.01 46.36, 26.59 46.71, 21.36 46.29 C16.13 45.88, 11.46 44.21, 8.13 40.82 C4.8 37.42, 2.07 30.92, 1.37 25.94 C0.68 20.97, 1.48 15.26, 3.96 10.96 C6.44 6.66, 14.09 1.59, 16.25 0.15 C18.42 -1.29, 16.71 1.74, 16.92 2.3" stroke="#000000" stroke-width="1" fill="none"></path></g><g stroke-linecap="round" transform="translate(227.81470798920418 21.57896050720592) rotate(0 16.559398007417258 14.885644421279721)"><path d="M14.4 0.01 C17.44 -0.86, 20.82 -0.32, 23.89 1.32 C26.96 2.96, 31.38 6.72, 32.83 9.85 C34.28 12.98, 34.05 17, 32.6 20.09 C31.15 23.17, 27.33 26.71, 24.13 28.38 C20.94 30.04, 16.7 30.6, 13.43 30.1 C10.16 29.6, 6.66 27.99, 4.51 25.37 C2.36 22.76, 0.6 17.57, 0.53 14.39 C0.46 11.22, 1.61 8.72, 4.12 6.3 C6.62 3.89, 13.47 0.83, 15.54 -0.1 C17.61 -1.04, 16.65 0.47, 16.54 0.68 M22.68 -0.14 C25.94 0.68, 27.52 4.41, 29.29 7.46 C31.06 10.51, 33.51 15.32, 33.3 18.14 C33.1 20.97, 30.97 22.59, 28.06 24.4 C25.14 26.22, 19.39 28.87, 15.81 29.03 C12.22 29.19, 9.32 27.38, 6.56 25.38 C3.79 23.39, -0.23 20.04, -0.8 17.04 C-1.37 14.05, 1.11 9.97, 3.14 7.41 C5.18 4.85, 8.27 2.77, 11.39 1.66 C14.51 0.56, 20 0.91, 21.86 0.8 C23.72 0.7, 22.62 0.85, 22.57 1.03" stroke="none" stroke-width="0" fill="#ced4da"></path><path d="M18.95 0.99 C22.54 1.13, 26.47 1.53, 28.8 3.77 C31.13 6, 32.78 11.22, 32.92 14.4 C33.07 17.58, 31.78 20.48, 29.68 22.86 C27.57 25.24, 23.61 27.81, 20.3 28.68 C16.98 29.56, 12.94 29.34, 9.79 28.12 C6.63 26.9, 3.07 24.16, 1.38 21.35 C-0.32 18.53, -1.34 14.5, -0.38 11.23 C0.59 7.97, 3.54 3.41, 7.17 1.74 C10.79 0.07, 18.6 1.29, 21.37 1.23 C24.14 1.16, 23.86 1.32, 23.8 1.37 M23.17 0.31 C26.3 1.26, 31.1 4.4, 32.83 7.64 C34.56 10.88, 34.9 16.3, 33.54 19.74 C32.19 23.18, 27.65 26.84, 24.71 28.28 C21.76 29.73, 19.28 28.82, 15.86 28.42 C12.43 28.01, 6.73 27.72, 4.17 25.83 C1.61 23.95, 0.68 20.41, 0.5 17.12 C0.32 13.82, 1 9.01, 3.09 6.06 C5.19 3.1, 9.75 0.24, 13.07 -0.6 C16.4 -1.44, 21.12 0.68, 23.04 1.01 C24.95 1.34, 24.53 1.16, 24.59 1.36" stroke="#000000" stroke-width="1" fill="none"></path></g><g stroke-linecap="round" transform="translate(293.4288175300353 49.5614483996178) rotate(0 20.504409231507452 19.298267512007442)"><path d="M25.88 -0.18 C29.82 0.65, 34.3 5.54, 36.82 9.19 C39.34 12.84, 41.31 17.86, 40.99 21.73 C40.68 25.6, 38 29.65, 34.93 32.4 C31.87 35.15, 26.92 37.72, 22.61 38.25 C18.29 38.77, 12.56 37.83, 9.04 35.55 C5.53 33.27, 2.77 28.61, 1.51 24.55 C0.26 20.48, -0.41 14.89, 1.52 11.15 C3.45 7.42, 8.74 3.79, 13.07 2.12 C17.4 0.46, 24.79 1.23, 27.51 1.17 C30.24 1.12, 29.57 1.38, 29.41 1.79 M12.18 0.08 C16.05 -1.72, 23.06 -0.25, 27.58 1.34 C32.1 2.92, 37.33 6.34, 39.28 9.57 C41.24 12.8, 40.29 16.68, 39.3 20.73 C38.31 24.78, 36.61 31.09, 33.34 33.87 C30.08 36.65, 24.17 37.11, 19.72 37.41 C15.28 37.7, 10 37.83, 6.68 35.64 C3.37 33.45, 0.44 28.48, -0.17 24.26 C-0.77 20.05, 0.83 14, 3.04 10.36 C5.25 6.72, 11.42 3.8, 13.12 2.43 C14.81 1.07, 13.15 2, 13.22 2.16" stroke="none" stroke-width="0" fill="#ced4da"></path><path d="M13.29 2.06 C17.06 0.11, 21.53 -0.37, 25.71 0.66 C29.89 1.7, 35.93 4.88, 38.35 8.28 C40.78 11.67, 40.97 16.83, 40.24 21.05 C39.52 25.28, 37.12 30.73, 33.99 33.62 C30.87 36.52, 25.75 38.39, 21.5 38.43 C17.26 38.46, 11.97 36.27, 8.52 33.83 C5.08 31.39, 2.05 27.67, 0.84 23.81 C-0.37 19.95, -1.43 14.64, 1.26 10.65 C3.96 6.66, 13.9 1.57, 17.02 -0.12 C20.14 -1.82, 20.11 -0.06, 19.98 0.49 M26.61 2.4 C30.39 3.87, 34.75 7.74, 37.21 10.99 C39.66 14.23, 41.82 17.8, 41.36 21.86 C40.91 25.91, 38.22 32.62, 34.48 35.33 C30.74 38.04, 23.37 38.3, 18.91 38.14 C14.45 37.97, 10.61 36.99, 7.71 34.34 C4.8 31.7, 2.29 26.34, 1.48 22.27 C0.67 18.19, 0.97 13.55, 2.85 9.88 C4.73 6.21, 8.68 1.54, 12.76 0.25 C16.83 -1.03, 24.9 1.88, 27.31 2.16 C29.73 2.44, 27.39 1.55, 27.25 1.94" stroke="#000000" stroke-width="1" fill="none"></path></g><g stroke-linecap="round" transform="translate(207.89667472595102 46.324584791917005) rotate(0 21.2457124174598 20.676630834848766)"><path d="M22.89 -0.5 C27.21 -0.21, 34.14 3.27, 37.48 6.64 C40.82 10.01, 42.93 15.2, 42.93 19.71 C42.93 24.22, 40.35 30.1, 37.49 33.71 C34.63 37.32, 29.97 40.32, 25.76 41.36 C21.55 42.41, 16.16 42.19, 12.24 40 C8.32 37.82, 4.08 32.32, 2.23 28.25 C0.39 24.19, -0.12 19.8, 1.19 15.62 C2.5 11.44, 5.73 5.59, 10.08 3.19 C14.42 0.8, 23.93 1.42, 27.26 1.24 C30.59 1.06, 30.06 1.97, 30.07 2.11 M20.39 0.55 C24.58 0.72, 31.84 3.8, 35.54 6.37 C39.23 8.95, 42.16 11.95, 42.57 15.99 C42.98 20.03, 40.39 26.79, 38 30.62 C35.61 34.45, 32.5 37.56, 28.24 38.94 C23.98 40.33, 16.48 40.41, 12.42 38.93 C8.37 37.46, 5.72 33.72, 3.91 30.1 C2.09 26.49, 0.82 21.48, 1.54 17.25 C2.25 13.01, 4.65 7.56, 8.19 4.7 C11.72 1.83, 20.42 0.81, 22.74 0.06 C25.06 -0.7, 22.25 -0.13, 22.1 0.19" stroke="none" stroke-width="0" fill="#ced4da"></path><path d="M11.95 1.67 C15.5 -0.53, 21.45 0.26, 25.75 1.23 C30.05 2.2, 35.02 4.19, 37.73 7.49 C40.44 10.79, 42.1 16.53, 42.01 21.02 C41.92 25.51, 40.21 31.05, 37.18 34.46 C34.16 37.86, 28.56 40.77, 23.84 41.42 C19.11 42.08, 12.63 40.95, 8.83 38.37 C5.02 35.79, 2.21 30.12, 1 25.95 C-0.2 21.77, -0.21 17.45, 1.63 13.31 C3.47 9.17, 9.99 3.14, 12.04 1.12 C14.08 -0.9, 13.51 0.63, 13.9 1.18 M22.79 -1.21 C27.41 -1.07, 33.23 2.53, 36.29 5.82 C39.35 9.11, 40.45 14.48, 41.15 18.52 C41.85 22.56, 42.74 26.36, 40.49 30.09 C38.25 33.81, 32.07 39.01, 27.67 40.86 C23.26 42.71, 18.24 42.89, 14.05 41.19 C9.87 39.48, 4.75 34.86, 2.56 30.61 C0.37 26.35, 0.13 20.08, 0.89 15.66 C1.64 11.24, 3.49 6.76, 7.1 4.08 C10.71 1.4, 20.07 0.29, 22.55 -0.42 C25.02 -1.13, 21.87 -0.45, 21.95 -0.2" stroke="#ced4da" stroke-width="1" fill="none"></path></g><g stroke-linecap="round" transform="translate(265.18422070874294 30.39030047882261) rotate(0 25.608671217474694 27.505609826177533)"><path d="M34.46 2.69 C39.47 4.67, 45.54 10.02, 48.27 14.97 C50.99 19.92, 51.86 26.74, 50.82 32.38 C49.79 38.02, 46.31 44.95, 42.07 48.82 C37.82 52.69, 30.8 55.65, 25.36 55.61 C19.92 55.56, 13.7 52.53, 9.43 48.54 C5.16 44.56, 0.5 37.55, -0.27 31.7 C-1.04 25.85, 1.85 18.51, 4.8 13.45 C7.75 8.39, 11.57 2.88, 17.44 1.33 C23.32 -0.22, 35.81 2.86, 40.05 4.14 C44.29 5.41, 43.32 8.54, 42.9 8.99 M35.44 2.2 C40.77 4.17, 47.04 9.74, 49.35 14.61 C51.65 19.49, 50.65 25.69, 49.25 31.43 C47.84 37.17, 45.16 45.33, 40.91 49.06 C36.66 52.79, 29.29 53.76, 23.76 53.82 C18.22 53.88, 11.69 52.94, 7.68 49.44 C3.68 45.94, 0.29 38.82, -0.28 32.83 C-0.85 26.84, 1.3 18.57, 4.26 13.53 C7.22 8.48, 12.37 4.42, 17.48 2.56 C22.6 0.69, 32.11 2.32, 34.94 2.34 C37.78 2.36, 34.66 2.09, 34.48 2.66" stroke="none" stroke-width="0" fill="#ced4da"></path><path d="M35.64 2.37 C40.48 4.24, 47.13 10.06, 49.48 15.33 C51.84 20.6, 51.36 28.18, 49.76 34 C48.15 39.81, 44.24 46.78, 39.83 50.24 C35.42 53.71, 28.64 55.47, 23.32 54.78 C17.99 54.1, 11.68 50.23, 7.86 46.11 C4.04 42, 1.09 35.82, 0.39 30.11 C-0.31 24.4, 0.46 16.8, 3.63 11.86 C6.8 6.93, 13.94 1.94, 19.41 0.48 C24.88 -0.99, 33.49 2.33, 36.45 3.06 C39.42 3.78, 37.14 4.43, 37.18 4.83 M18.68 1.77 C24.01 -0.19, 32.74 -0.75, 38 1.93 C43.26 4.61, 48.44 12.32, 50.24 17.86 C52.04 23.39, 50.5 29.6, 48.81 35.13 C47.13 40.67, 44.34 47.79, 40.14 51.06 C35.95 54.32, 29.22 55.44, 23.66 54.71 C18.11 53.99, 10.9 51.16, 6.79 46.72 C2.68 42.28, -0.65 33.91, -1 28.09 C-1.36 22.27, 1.26 16.32, 4.68 11.81 C8.09 7.29, 17.01 2.53, 19.47 1 C21.92 -0.53, 19.39 2.35, 19.39 2.65" stroke="#ced4da" stroke-width="1" fill="none"></path></g><g stroke-linecap="round" transform="translate(283.01544363053836 49.73907428757957) rotate(0 24.470508052252626 18.779692226147745)"><path d="M22.43 0.21 C27.57 -0.32, 34.32 0.96, 38.45 3.27 C42.57 5.58, 45.83 10.14, 47.19 14.07 C48.55 17.99, 48.48 23.09, 46.61 26.82 C44.74 30.56, 40.55 34.86, 36 36.48 C31.44 38.09, 24.44 37.44, 19.28 36.51 C14.13 35.58, 8.2 34.08, 5.07 30.9 C1.93 27.73, 0.21 21.58, 0.48 17.47 C0.75 13.36, 2.22 9.18, 6.68 6.23 C11.13 3.28, 22.71 0.66, 27.22 -0.24 C31.73 -1.13, 33.73 0.37, 33.75 0.87 M18.06 2.01 C23.03 0.39, 30.27 -1.16, 34.76 0.15 C39.26 1.45, 42.77 6.17, 45.02 9.82 C47.28 13.47, 49.54 18.18, 48.32 22.03 C47.09 25.88, 41.72 30.45, 37.67 32.94 C33.62 35.42, 28.86 36.96, 24.02 36.94 C19.18 36.92, 12.54 35.51, 8.61 32.83 C4.68 30.15, 0.98 24.93, 0.43 20.85 C-0.13 16.76, 2.32 11.72, 5.28 8.33 C8.25 4.94, 16.05 1.72, 18.2 0.5 C20.34 -0.73, 17.88 0.87, 18.14 0.97" stroke="none" stroke-width="0" fill="#ced4da"></path><path d="M35.29 2.72 C39.74 4.22, 44.51 7.22, 46.53 10.69 C48.56 14.17, 48.84 19.62, 47.46 23.55 C46.08 27.47, 42.56 31.88, 38.24 34.24 C33.92 36.59, 26.93 38.06, 21.51 37.68 C16.09 37.3, 9.3 35.07, 5.72 31.96 C2.15 28.84, 0.23 22.95, 0.08 18.98 C-0.07 15.02, 1.78 11.36, 4.82 8.16 C7.86 4.97, 12.7 0.72, 18.3 -0.19 C23.9 -1.1, 34.55 1.7, 38.42 2.72 C42.28 3.73, 41.75 5.61, 41.51 5.89 M15.94 2.23 C20.03 0.88, 25.48 1.01, 30.49 1.85 C35.51 2.69, 43.06 3.95, 46.03 7.25 C48.99 10.55, 49.03 17.25, 48.31 21.66 C47.58 26.07, 45.41 31.08, 41.65 33.71 C37.88 36.35, 30.94 37.63, 25.71 37.47 C20.48 37.31, 14.58 35.25, 10.27 32.76 C5.96 30.27, 0.95 26.35, -0.17 22.53 C-1.29 18.71, 0.98 13.47, 3.54 9.86 C6.1 6.25, 13.02 2.39, 15.18 0.89 C17.33 -0.6, 16.46 0.35, 16.48 0.88" stroke="#ced4da" stroke-width="1" fill="none"></path></g><g stroke-linecap="round" transform="translate(240.14463107387564 23.181933765758004) rotate(0 20.486936973979027 20.676630834848766)"><path d="M11.55 2.58 C15.31 0.25, 21.19 -1.08, 25.54 -0.14 C29.89 0.79, 34.99 4.38, 37.65 8.18 C40.31 11.98, 41.73 18.12, 41.48 22.68 C41.23 27.24, 39.37 32.39, 36.15 35.53 C32.93 38.67, 26.5 41.05, 22.15 41.5 C17.8 41.96, 13.61 40.8, 10.03 38.28 C6.45 35.76, 1.96 30.77, 0.65 26.38 C-0.67 21.99, -0.07 16.07, 2.13 11.94 C4.33 7.81, 11.46 3.47, 13.85 1.6 C16.24 -0.27, 16.19 0.59, 16.48 0.72 M13.43 2.13 C16.8 -0.12, 20.76 -1.82, 24.65 -0.64 C28.53 0.54, 34.25 5.5, 36.74 9.21 C39.23 12.93, 40.08 17.05, 39.57 21.65 C39.06 26.25, 36.72 33.34, 33.69 36.8 C30.65 40.27, 25.47 42.29, 21.35 42.44 C17.23 42.59, 12.43 40.31, 8.99 37.7 C5.55 35.09, 1.86 31.05, 0.71 26.79 C-0.43 22.52, 0.26 16.21, 2.12 12.09 C3.99 7.97, 10.24 3.5, 11.92 2.07 C13.6 0.64, 12.26 3.43, 12.2 3.49" stroke="none" stroke-width="0" fill="#ced4da"></path><path d="M26.01 0.18 C30.13 0.85, 33.94 4.25, 36.33 7.92 C38.72 11.6, 40.54 17.78, 40.33 22.25 C40.13 26.73, 38 31.78, 35.12 34.78 C32.24 37.78, 27.32 39.73, 23.04 40.26 C18.76 40.79, 13.3 40.24, 9.45 37.95 C5.6 35.66, 1.13 30.87, -0.07 26.53 C-1.26 22.19, 0.5 15.96, 2.29 11.92 C4.07 7.87, 5.9 3.58, 10.66 2.27 C15.41 0.97, 26.45 3.14, 30.79 4.07 C35.14 5, 36.9 7.86, 36.74 7.86 M28.76 0.37 C33.11 1.67, 37.8 7.91, 39.56 11.91 C41.31 15.91, 40.24 20.15, 39.28 24.39 C38.33 28.63, 36.85 34.54, 33.83 37.35 C30.8 40.16, 25.62 41.38, 21.12 41.26 C16.62 41.14, 10.47 39.68, 6.82 36.62 C3.16 33.56, -0.11 27.19, -0.82 22.87 C-1.53 18.56, 0.13 14.31, 2.54 10.72 C4.94 7.14, 9.46 2.67, 13.61 1.36 C17.76 0.05, 25.21 2.89, 27.43 2.88 C29.65 2.87, 26.8 1.17, 26.92 1.31" stroke="#ced4da" stroke-width="1" fill="none"></path></g><g stroke-linecap="round" transform="translate(222.69279587383062 33.804789974485175) rotate(0 28.264385269656486 25.798365078342613)"><path d="M19.64 1.52 C24.73 -0.4, 32.25 0.3, 37.76 2.37 C43.28 4.44, 49.61 9.05, 52.74 13.94 C55.88 18.83, 57.64 26.48, 56.6 31.72 C55.55 36.96, 51.27 41.91, 46.49 45.39 C41.71 48.86, 33.99 52.6, 27.92 52.55 C21.85 52.49, 14.67 48.77, 10.06 45.03 C5.46 41.29, 1.34 35.61, 0.28 30.11 C-0.77 24.61, 0.28 16.99, 3.72 12.02 C7.17 7.05, 17.96 1.96, 20.95 0.29 C23.95 -1.38, 21.75 1.59, 21.68 1.99 M33.72 -1.05 C39.15 -0.76, 44.79 4.34, 48.61 8.64 C52.43 12.93, 56.63 19.22, 56.63 24.7 C56.63 30.17, 52.33 37.16, 48.6 41.49 C44.86 45.82, 39.81 49.48, 34.22 50.66 C28.64 51.85, 20.47 51.27, 15.09 48.59 C9.71 45.9, 3.96 39.83, 1.93 34.54 C-0.11 29.25, 0.73 22.08, 2.88 16.85 C5.02 11.61, 9.66 5.89, 14.79 3.13 C19.92 0.37, 30.36 0.92, 33.66 0.31 C36.96 -0.3, 34.94 -1.17, 34.6 -0.51" stroke="none" stroke-width="0" fill="#ced4da"></path><path d="M18.87 0.71 C24.16 -1.5, 32.38 -0.9, 38.13 1.18 C43.89 3.27, 50.44 8.25, 53.39 13.24 C56.34 18.24, 57.24 25.66, 55.83 31.16 C54.42 36.66, 49.63 43, 44.92 46.25 C40.21 49.5, 33.48 50.77, 27.59 50.68 C21.69 50.59, 14.18 49.35, 9.55 45.72 C4.92 42.1, 0.69 34.6, -0.19 28.94 C-1.07 23.28, -0.34 16.46, 4.25 11.77 C8.85 7.07, 22.47 2.65, 27.39 0.78 C32.3 -1.09, 33.99 0.12, 33.74 0.56 M16.04 3.13 C21.18 0.42, 31.59 -1.7, 37.49 -0.17 C43.39 1.36, 48.24 7.26, 51.46 12.3 C54.67 17.34, 57.44 24.7, 56.79 30.07 C56.13 35.45, 51.94 41.14, 47.53 44.55 C43.12 47.95, 36.5 50.29, 30.33 50.52 C24.16 50.75, 15.3 49.16, 10.52 45.95 C5.74 42.74, 2.84 36.66, 1.64 31.26 C0.44 25.86, 0.52 18.58, 3.34 13.55 C6.16 8.53, 16.31 2.81, 18.55 1.11 C20.8 -0.58, 16.81 2.64, 16.82 3.39" stroke="#ced4da" stroke-width="1" fill="none"></path></g><g transform="translate(242.9514462173065 53.13271898855601) rotate(0 25.14839520321948 13.857278989529732)"><text x="25.148395203219454" y="19.714557979058117" font-family="Virgil, Segoe UI Emoji" font-size="20.529302206709755px" fill="#000000" text-anchor="middle" style="white-space: pre;" direction="ltr">cloud</text></g><g stroke-linecap="round"><g transform="translate(188.15005516342717 197.81807221027702) rotate(0 97.77313900972695 158.79642435035203)"><path d="M-1.11 -0.84 C31.73 52.14, 163.65 265.58, 196.66 318.44 M0.5 1.33 C33.19 53.94, 162.96 264.19, 195.57 316.81" stroke="#000000" stroke-width="1" fill="none"></path></g><g transform="translate(188.15005516342717 197.81807221027702) rotate(0 97.77313900972695 158.79642435035203)"><path d="M170.61 297.76 C179.97 303.4, 182.74 308.8, 197.52 315.02 M171.66 297.69 C178.8 304.24, 185.87 309.48, 195.12 316.43" stroke="#000000" stroke-width="1" fill="none"></path></g><g transform="translate(188.15005516342717 197.81807221027702) rotate(0 97.77313900972695 158.79642435035203)"><path d="M188.06 286.97 C192.81 295.33, 190.91 303.62, 197.52 315.02 M189.12 286.9 C190.99 296.85, 192.71 305.39, 195.12 316.43" stroke="#000000" stroke-width="1" fill="none"></path></g></g><g stroke-linecap="round"><g transform="translate(206.2583500460969 523.9941297958067) rotate(0 81.39857850214139 -162.145616220183)"><path d="M-0.84 0.5 C26.51 -53.53, 136.18 -270.57, 163.64 -324.79 M0.92 -0.29 C28.18 -54.08, 135.79 -269.51, 162.88 -323.41" stroke="#000000" stroke-width="1" fill="none"></path></g><g transform="translate(206.2583500460969 523.9941297958067) rotate(0 81.39857850214139 -162.145616220183)"><path d="M160.25 -293.02 C159.99 -300.39, 160.84 -311.18, 161.89 -324.13 M159.86 -293.24 C160.37 -302.86, 161.11 -312.29, 163.75 -323.24" stroke="#000000" stroke-width="1" fill="none"></path></g><g transform="translate(206.2583500460969 523.9941297958067) rotate(0 81.39857850214139 -162.145616220183)"><path d="M141.9 -302.21 C146.39 -307.04, 152.06 -315.43, 161.89 -324.13 M141.52 -302.43 C147.75 -309.26, 154.26 -315.79, 163.75 -323.24" stroke="#000000" stroke-width="1" fill="none"></path></g></g><g stroke-linecap="round"><g transform="translate(493.4504360551764 358.6856282254812) rotate(0 -202.53652482371217 0.46479430617546313)"><path d="M-0.92 -0.63 C-68.34 -0.7, -337.54 -0.77, -405.06 -0.66 M0.79 1.65 C-66.72 1.71, -338.48 0.39, -405.87 0.32" stroke="#000000" stroke-width="1" fill="none"></path></g><g transform="translate(493.4504360551764 358.6856282254812) rotate(0 -202.53652482371217 0.46479430617546313)"><path d="M-378.7 -9.42 C-386.69 -8.67, -392.72 -6.16, -404.41 0.07 M-377.37 -9.8 C-389.09 -5.53, -399.08 -0.82, -406.01 -0.39" stroke="#000000" stroke-width="1" fill="none"></path></g><g transform="translate(493.4504360551764 358.6856282254812) rotate(0 -202.53652482371217 0.46479430617546313)"><path d="M-378.77 11.1 C-386.7 6.59, -392.7 3.84, -404.41 0.07 M-377.44 10.72 C-389.24 6.85, -399.2 3.41, -406.01 -0.39" stroke="#000000" stroke-width="1" fill="none"></path></g></g><g stroke-linecap="round"><g transform="translate(217.0383494494381 174.46122320323047) rotate(25.15288988927903 12.047488251546383 -44.855396387221845)"><path d="M-1.11 -0.12 C2.91 -14.87, 20.92 -73.03, 25.2 -87.78 M0.51 -1.23 C4.36 -16.4, 20.85 -75.23, 24.77 -89.59" stroke="#000000" stroke-width="1" fill="none"></path></g><g transform="translate(217.0383494494381 174.46122320323047) rotate(25.15288988927903 12.047488251546383 -44.855396387221845)"><path d="M26.95 -58.03 C27.02 -70.81, 24.71 -81.99, 23.69 -91.35 M26.18 -60.28 C25.52 -69.43, 24.86 -79.9, 25.71 -89.96" stroke="#000000" stroke-width="1" fill="none"></path></g><g transform="translate(217.0383494494381 174.46122320323047) rotate(25.15288988927903 12.047488251546383 -44.855396387221845)"><path d="M7.17 -63.51 C15.04 -73.95, 20.49 -82.98, 23.69 -91.35 M6.4 -65.75 C12.22 -73.16, 18.04 -81.84, 25.71 -89.96" stroke="#000000" stroke-width="1" fill="none"></path></g></g></svg>